<mxfile host="Electron" modified="2024-05-15T22:35:03.397Z" agent="Mozilla/5.0 (Windows NT 10.0; Win64; x64) AppleWebKit/537.36 (KHTML, like Gecko) draw.io/24.2.5 Chrome/120.0.6099.109 Electron/28.1.0 Safari/537.36" etag="SjNAGggFxaUR_CKDfoz7" version="24.2.5" type="device">
  <diagram name="페이지-1" id="Fg3F8MiWt500lfujR5S4">
    <mxGraphModel dx="1194" dy="657" grid="1" gridSize="10" guides="1" tooltips="1" connect="1" arrows="1" fold="1" page="1" pageScale="1" pageWidth="827" pageHeight="1169" math="0" shadow="0">
      <root>
        <mxCell id="0" />
        <mxCell id="1" parent="0" />
        <mxCell id="Xrz4ZLWfAwfnYSgGnZuo-4" value="" style="edgeStyle=orthogonalEdgeStyle;rounded=0;orthogonalLoop=1;jettySize=auto;html=1;" edge="1" parent="1" source="Xrz4ZLWfAwfnYSgGnZuo-1" target="Xrz4ZLWfAwfnYSgGnZuo-2">
          <mxGeometry relative="1" as="geometry" />
        </mxCell>
        <mxCell id="Xrz4ZLWfAwfnYSgGnZuo-1" value="start" style="rounded=1;whiteSpace=wrap;html=1;" vertex="1" parent="1">
          <mxGeometry x="360" y="130" width="120" height="60" as="geometry" />
        </mxCell>
        <mxCell id="Xrz4ZLWfAwfnYSgGnZuo-6" value="" style="edgeStyle=orthogonalEdgeStyle;rounded=0;orthogonalLoop=1;jettySize=auto;html=1;" edge="1" parent="1" source="Xrz4ZLWfAwfnYSgGnZuo-2" target="Xrz4ZLWfAwfnYSgGnZuo-5">
          <mxGeometry relative="1" as="geometry" />
        </mxCell>
        <mxCell id="Xrz4ZLWfAwfnYSgGnZuo-2" value="print all processes&lt;div&gt;information&lt;/div&gt;" style="shape=parallelogram;perimeter=parallelogramPerimeter;whiteSpace=wrap;html=1;fixedSize=1;" vertex="1" parent="1">
          <mxGeometry x="360" y="230" width="120" height="60" as="geometry" />
        </mxCell>
        <mxCell id="Xrz4ZLWfAwfnYSgGnZuo-8" value="" style="edgeStyle=orthogonalEdgeStyle;rounded=0;orthogonalLoop=1;jettySize=auto;html=1;" edge="1" parent="1" source="Xrz4ZLWfAwfnYSgGnZuo-5" target="Xrz4ZLWfAwfnYSgGnZuo-7">
          <mxGeometry relative="1" as="geometry" />
        </mxCell>
        <mxCell id="Xrz4ZLWfAwfnYSgGnZuo-5" value="set alarm 10 secs" style="rounded=0;whiteSpace=wrap;html=1;" vertex="1" parent="1">
          <mxGeometry x="360" y="330" width="120" height="60" as="geometry" />
        </mxCell>
        <mxCell id="Xrz4ZLWfAwfnYSgGnZuo-7" value="end" style="rounded=1;whiteSpace=wrap;html=1;" vertex="1" parent="1">
          <mxGeometry x="360" y="430" width="120" height="60" as="geometry" />
        </mxCell>
      </root>
    </mxGraphModel>
  </diagram>
</mxfile>
